<svg xmlns="http://www.w3.org/2000/svg" xmlns:xlink="http://www.w3.org/1999/xlink" viewBox="0,0,256,256" width="20px" height="20px"><g fill="none" fill-rule="evenodd" stroke="none" stroke-width="1" stroke-linecap="butt" stroke-linejoin="miter" stroke-miterlimit="10" stroke-dasharray="" stroke-dashoffset="0" font-family="none" font-weight="none" font-size="none" text-anchor="none" style="mix-blend-mode: normal"><g transform="scale(5.33333,5.33333)"><path d="M6.998,11.997l0.001,-1.999c0,-1.656 1.343,-3 3,-3h28c1.656,0 3,1.344 3,3v1.999c0,0.552 -0.449,1 -1,1h-32.001c-0.553,0 -1.001,-0.448 -1,-1z" fill="#de1717"></path><path d="M8.999,40.993l-0.001,-2.001h30.001v2c0,1.657 -1.344,3 -3,3h-24c-1.657,-0.001 -3,-1.343 -3,-2.999z" fill="#de1717"></path><path d="M9.999,38.997v-29h28v29c0,1.104 -0.899,1.997 -2.003,1.997h-24c-1.103,0 -1.997,-0.893 -1.997,-1.997z" fill="#ffffff"></path><path d="M8.999,38.997v-29c0,-0.551 0.448,-1 1,-1h28c0.551,0 1,0.449 1,1v29c0,1.66 -1.351,2.997 -3.003,2.997h-24c-1.657,0 -2.997,-1.34 -2.997,-2.997zM36.999,38.997v-28h-26v28c0,0.552 0.445,0.997 0.997,0.997h24c0.555,0 1.003,-0.448 1.003,-0.997z" fill="#de1717"></path><path d="M7.998,9.997l0.001,-1.999c0,-1.104 0.896,-2 2,-2h28c1.104,0 2,0.896 2,2v1.999z" fill="#ffffff"></path><path d="M6.998,9.997l0.001,-1.999c0,-1.656 1.343,-3 3,-3h28c1.656,0 3,1.344 3,3v1.999c0,0.552 -0.449,1 -1,1h-32.001c-0.553,0 -1.001,-0.448 -1,-1zM38.999,8.997v-0.999c0,-0.551 -0.449,-1 -1,-1h-28c-0.552,0 -1,0.449 -1,1.001l-0.001,0.998z" fill="#de1717"></path><path d="M17.999,4.997c0,-2.207 1.792,-4 4,-4h4c2.207,0 4,1.793 4,4c0,0.552 -0.449,1 -1,1c-0.552,0 -1,-0.448 -1,-1c0,-1.101 -0.899,-2 -2,-2h-4c-1.103,0 -2,0.899 -2,2c0,0.552 -0.449,1 -1,1c-0.552,0 -1,-0.448 -1,-1z" fill="#de1717"></path><path d="M22.998,34.998v-19c0,-0.551 0.448,-1 1,-1c0.551,0 1,0.449 1,1v19c0,0.552 -0.449,1 -1,1c-0.552,0 -1,-0.448 -1,-1z" fill="#de1717"></path><path d="M14.998,34.998v-19c0,-0.551 0.448,-1 1,-1c0.551,0 1,0.449 1,1v19c0,0.552 -0.449,1 -1,1c-0.552,0 -1,-0.448 -1,-1z" fill="#de1717"></path><path d="M30.997,34.998v-19c0,-0.551 0.448,-1 1,-1c0.551,0 1,0.449 1,1v19c0,0.552 -0.449,1 -1,1c-0.552,0 -1,-0.448 -1,-1z" fill="#de1717"></path></g></g></svg>